<?xml version="1.0" encoding="UTF-8" standalone="no"?>
<svg
   xmlns:dc="http://purl.org/dc/elements/1.1/"
   xmlns:cc="http://creativecommons.org/ns#"
   xmlns:rdf="http://www.w3.org/1999/02/22-rdf-syntax-ns#"
   xmlns:svg="http://www.w3.org/2000/svg"
   xmlns="http://www.w3.org/2000/svg"
   xmlns:sodipodi="http://sodipodi.sourceforge.net/DTD/sodipodi-0.dtd"
   xmlns:inkscape="http://www.inkscape.org/namespaces/inkscape"
   viewBox="0 0 245 145"
   id="svg7"
   height="145"
   width="245"
   version="1.1"
   sodipodi:docname="logo-tme.svg"
   inkscape:version="0.92.2 5c3e80d, 2017-08-06">
  <sodipodi:namedview
     pagecolor="#ffffff"
     bordercolor="#666666"
     borderopacity="1"
     objecttolerance="10"
     gridtolerance="10"
     guidetolerance="10"
     inkscape:pageopacity="0"
     inkscape:pageshadow="2"
     inkscape:window-width="1920"
     inkscape:window-height="1080"
     id="namedview8"
     showgrid="false"
     inkscape:zoom="0.79293156"
     inkscape:cx="-126.74585"
     inkscape:cy="383.96624"
     inkscape:window-x="0"
     inkscape:window-y="0"
     inkscape:window-maximized="0"
     inkscape:current-layer="svg7" />
  <metadata
     id="metadata13">
    <rdf:RDF>
      <cc:Work
         rdf:about="">
        <dc:format>image/svg+xml</dc:format>
        <dc:type
           rdf:resource="http://purl.org/dc/dcmitype/StillImage" />
        <dc:title></dc:title>
      </cc:Work>
    </rdf:RDF>
  </metadata>
  <defs
     id="defs11" />
  <g
     id="Layer1000"
     transform="translate(-118.54743,-198.67251)">
    <path
       id="path2"
       style="fill:#ffec00;fill-rule:evenodd;stroke:#1b1918;stroke-width:0.50400001;stroke-linecap:butt;stroke-linejoin:miter;stroke-dasharray:none"
       d="m 359.316,283.968 c -0.504,8.568 -3.6,17.208 -8.712,25.848 L 343.98,306 c -3.384,6.912 -9.144,12.6 -15.84,17.784 l 5.184,5.616 c -8.64,6.768 -18,10.512 -27.864,12.672 l -2.232,-7.2 c -9.36,1.8 -17.856,1.296 -26.784,-1.08 l -3.168,7.056 c -8.64,-2.736 -16.2,-6.552 -22.68,-11.736 l 4.968,-5.688 -3.456,-2.664 16.92,-12.24 c 24.696,16.848 56.016,3.384 62.136,-24.408 z m -46.512,-74.304 -8.064,28.08 c 11.808,-4.176 18,-16.848 8.064,-28.08 z m -25.128,-2.88 2.592,29.304 c 9.576,-8.136 10.8,-22.32 -2.592,-29.304 z m 72.72,54.072 -28.944,7.056 c 9.648,8.424 24.048,7.488 28.944,-7.056 z m -9.36,-22.248 -24.768,16.776 c 11.952,4.464 25.128,-1.44 24.768,-16.776 z M 244.26,225.72 l 20.808,21.024 c 2.16,-12.456 -5.976,-24.192 -20.808,-21.024 z m 90.648,-4.68 -17.208,24.264 c 12.744,0 22.968,-10.08 17.208,-24.264 z m -70.272,-8.928 11.808,27.072 c 6.408,-10.872 3.024,-24.768 -11.808,-27.072 z"
       inkscape:connector-curvature="0" />
    <path
       id="path4"
       style="fill:#e30016;fill-rule:evenodd;stroke:#1b1918;stroke-width:0.50400001;stroke-linecap:butt;stroke-linejoin:miter;stroke-dasharray:none"
       d="m 180.108,226.584 -0.144,-25.056 h -7.344 v 23.976 c -0.576,0.576 -1.224,1.08 -2.016,1.368 h -50.328 l 0.144,7.056 h 49.392 v 69.408 c 2.952,6.552 20.808,4.536 21.672,-2.52 l 0.144,-49.824 c 3.528,-4.896 10.224,-3.384 12.24,2.016 l -0.072,53.856 8.712,0.072 -0.288,-53.568 c 0,-1.296 -0.504,-2.592 -1.224,-3.888 1.656,-2.808 8.064,-2.736 11.592,-0.216 0.648,0.504 0.432,1.44 0.504,2.52 0.288,5.544 0.072,14.184 0.072,23.112 0,10.584 -0.072,22.248 0,32.256 l 7.848,0.144 v -56.16 c -0.072,-0.792 -0.36,-1.44 -0.864,-2.016 2.592,-4.176 9.36,-3.312 10.728,2.808 v 53.136 c 11.664,8.136 24.84,1.872 30.6,-0.792 6.264,5.256 12.96,7.056 19.872,7.2 7.488,0.72 30.024,-4.968 34.056,-27.72 h -7.632 c -3.816,14.328 -16.416,19.296 -26.352,19.368 -16.56,-0.432 -25.704,-13.68 -25.92,-27.072 l 60.84,0.216 c -1.944,-21.024 -16.344,-32.544 -34.632,-32.76 -20.376,0.648 -32.328,15.984 -33.624,32.112 -0.432,12.24 4.464,20.52 11.232,27.144 -8.712,3.96 -16.272,4.68 -20.088,2.664 v -53.928 c -3.96,-7.992 -13.896,-10.512 -21.888,-4.392 -6.408,-4.104 -12.96,-4.032 -19.368,0.432 -6.408,-4.464 -17.064,-2.88 -19.584,3.168 v 48.888 c -2.592,4.248 -5.904,5.256 -8.424,3.456 v -68.832 l 13.464,-0.144 0.144,-7.488 z m 136.584,41.832 -49.608,0.504 c 2.448,-9.36 9.72,-16.704 24.696,-17.928 12.96,-0.144 20.736,6.336 24.912,17.424 z"
       inkscape:connector-curvature="0" />
  </g>
</svg>
